<svg xmlns="http://www.w3.org/2000/svg" viewBox="150 250 680 580"
 fill="none">

  <path style="stroke: rgb(0,0,0); stroke-width: 0; fill: rgb(0,149,235); fill-rule: nonzero;" d="M 351.121 315.106 C 416.241 363.994 486.281 463.123 512 516.315 C 537.719 463.123 607.759 363.994 672.879 315.106 C 719.866 279.83 796 252.536 796 339.388 C 796 356.734 786.055 485.101 780.222 505.943 C 759.947 578.396 686.067 596.876 620.347 585.691 C 735.222 605.242 764.444 670.002 701.333 734.762 C 581.473 857.754 529.061 703.903 515.631 664.481 C 513.169 657.254 512.017 653.873 512 656.748 C 511.983 653.873 510.831 657.254 508.369 664.481 C 494.939 703.903 442.527 857.754 322.667 734.762 C 259.556 670.002 288.778 605.242 403.653 585.691 C 337.933 596.876 264.053 578.396 243.778 505.943 C 237.945 485.101 228 356.734 228 339.388 C 228 252.536 304.134 279.83 351.121 315.106 Z"/>
</svg>
